<?xml version="1.0" encoding="utf-8"?>
<!-- Generator: Adobe Illustrator 16.0.0, SVG Export Plug-In . SVG Version: 6.00 Build 0)  -->
<!DOCTYPE svg PUBLIC "-//W3C//DTD SVG 1.0//EN" "http://www.w3.org/TR/2001/REC-SVG-20010904/DTD/svg10.dtd">
<svg version="1.0" id="ball_xA0_Image_1_" xmlns="http://www.w3.org/2000/svg" xmlns:xlink="http://www.w3.org/1999/xlink" x="0px"
	 y="0px" width="177.36px" height="172.8px" viewBox="0 0 177.36 172.8" enable-background="new 0 0 177.36 172.8"
	 xml:space="preserve">
<g>
	<path fill-rule="evenodd" clip-rule="evenodd" fill="#040404" d="M166.801,86.302c-0.087,42.537-34.605,77.138-77.674,76.6
		c-41.579-0.52-75.651-34.149-75.608-76.718C13.562,43.04,48.797,8.875,91.592,9.65C133.034,10.4,166.708,44.082,166.801,86.302z
		 M163.199,86.264c0.11-40.242-32.729-72.45-71.827-73.064c-40.69-0.64-74.282,32.358-74.307,73.027
		c-0.024,40.556,33.324,73.582,73.96,73.125C130.55,158.909,163.33,126.41,163.199,86.264z"/>
	<path fill-rule="evenodd" clip-rule="evenodd" fill="#FCFCFC" d="M163.199,86.264c0.131,40.146-32.648,72.645-72.174,73.088
		c-40.636,0.456-73.984-32.569-73.96-73.125C17.09,45.558,50.681,12.56,91.372,13.2C130.47,13.814,163.309,46.021,163.199,86.264z
		 M132.765,34.735c-0.143-1.427-0.307-2.853-0.423-4.283c-0.086-1.051-0.617-1.786-1.485-2.317c-1.259-0.771-2.515-1.547-3.784-2.3
		c-4.097-2.433-8.441-4.323-12.942-5.866c-0.277-0.095-0.609-0.355-0.878-0.018c-0.238,0.299-0.029,0.62,0.096,0.898
		c0.236,0.525,0.699,0.86,1.118,1.229c3.925,3.452,7.849,6.905,11.771,10.358c-0.785,0.144-1.5-0.139-2.216-0.384
		c-2.938-1.004-5.829-2.182-8.818-2.999c-11.568-3.163-22.621-7.931-34.237-10.941c-0.93-0.241-1.785-0.532-2.781-0.31
		c-12.164,2.709-22.945,8.116-32.239,16.446c-0.694,0.622-1.065,1.359-1.045,2.309c0.026,1.239,0.004,2.479,0.003,3.718
		c-1.01,1.247-2.282,2.205-3.515,3.208c-0.214,0.174-0.387,0.404-0.558,0.624c-3.209,4.115-5.872,8.557-7.96,13.342
		c-3.032,6.949-4.628,14.242-5.364,21.765c-0.761,7.773-0.623,15.485,1.312,23.086c2.402,9.438,6.802,17.814,13.671,24.774
		c2.805,2.843,5.838,5.409,10.004,6.187c1.75,0.327,3.424,1.066,5.133,1.618c-0.08,3.109-0.142,6.22-0.253,9.329
		c-0.031,0.871,0.313,1.377,1.058,1.81c3.317,1.925,6.793,3.498,10.385,4.821c0.406,0.149,0.822,0.473,1.392,0.239
		c-0.348-0.576-0.672-1.12-1.002-1.66c-2.764-4.516-5.529-9.032-8.293-13.548c1.272,0.194,2.43,0.756,3.643,1.139
		c15.525,4.89,31.011,9.903,46.47,15.001c0.52,0.172,0.99,0.213,1.512,0.051c6.604-2.051,12.773-5.007,18.521-8.849
		c0.935-0.625,1.654-1.444,1.854-2.553c0.698-3.889,1.453-7.776,1.186-11.765c0.263-0.301,0.518-0.607,0.788-0.9
		c4.879-5.283,8.985-11.084,12.034-17.626c3.355-7.198,5.508-14.718,5.9-22.653c0.484-9.789-1.329-19.216-5.028-28.282
		c-2.685-6.58-5.896-12.821-11.118-17.84C134.727,39.722,133.326,37.446,132.765,34.735z M24.767,70.647
		c-0.073-0.018-0.145-0.037-0.217-0.055c-0.097,0.355-0.218,0.705-0.287,1.065c-0.868,4.552-1.341,9.119-1.366,13.781
		c-0.026,4.745,0.353,9.407,1.278,14.033c2.314,11.564,7.353,21.839,14.784,30.974c1.32,1.622,2.898,2.829,4.847,3.573
		c0.771,0.295,1.532,0.444,2.317,0.079c1.126-0.524,1.17-0.865,0.167-1.585c-4.986-3.579-9.265-7.892-12.64-12.988
		c-5.193-7.842-8.694-16.372-9.723-25.822c-0.616-5.661-0.655-11.31,0.034-16.96C24.21,74.708,24.498,72.679,24.767,70.647z
		 M159.027,68.12c0.149-0.457,0.019-0.712-0.055-0.979c-3.066-11.258-8.842-20.978-16.74-29.492
		c-0.161-0.173-0.348-0.333-0.549-0.459c-0.828-0.517-2.154-0.27-2.839,0.526c-0.681,0.792,0.026,1.334,0.399,1.887
		c0.717,1.064,1.612,1.976,2.56,2.843c2.222,2.035,4.839,3.588,6.523,6.266c3.843,6.107,8.15,11.941,10.393,18.923
		C158.765,67.776,158.881,67.895,159.027,68.12z"/>
	<path fill-rule="evenodd" clip-rule="evenodd" fill="#F8A21E" d="M134.1,128.897c0.268,3.988-0.487,7.876-1.186,11.765
		c-0.199,1.108-0.919,1.928-1.854,2.553c-5.747,3.842-11.917,6.798-18.521,8.849c-0.521,0.162-0.992,0.121-1.512-0.051
		c-15.459-5.098-30.944-10.111-46.47-15.001c-1.213-0.383-2.371-0.944-3.643-1.139c-1.045-0.499-2.098-0.97-3.287-0.991
		c-1.708-0.552-3.382-1.291-5.133-1.618c-4.166-0.777-7.199-3.344-10.004-6.187c-6.869-6.96-11.269-15.337-13.671-24.774
		c-1.935-7.602-2.074-15.313-1.312-23.086c0.736-7.523,2.332-14.816,5.364-21.765c2.088-4.785,4.751-9.227,7.96-13.342
		c0.171-0.22,0.344-0.45,0.558-0.624c1.232-1.004,2.504-1.962,3.515-3.208c1.073-0.094,2.15-0.164,3.22-0.284
		c11.877-1.329,23.792-2.059,35.741-2.147c8.951-0.066,17.903-0.086,26.849,0.289c4.785,0.201,9.59,0.127,14.348,0.749
		c3.444,0.45,5.903,2.277,7.059,5.657c-0.381,0.656-0.771,1.307-1.14,1.97c-4.091,7.37-10.354,11.772-18.534,13.524
		c-7.135,1.528-14.405,1.736-21.654,2.068c-3.867,0.177-7.731,0.25-11.585,0.727C66.21,64.441,55.739,70.45,47.75,80.782
		c-4.523,5.85-7.299,12.46-7.858,19.864c-0.602,7.972,1.711,15.298,5.383,22.268c0.551,1.046,1.378,1.629,2.59,1.593
		c0.979,2.703,2.801,4.379,5.716,4.807c1.542,0.227,3.072,0.497,4.639,0.496c14.155-0.007,28.31-0.022,42.465,0.005
		c6.475,0.012,12.946-0.016,19.416-0.296C124.768,129.316,129.424,128.888,134.1,128.897z"/>
	<path fill-rule="evenodd" clip-rule="evenodd" fill="#060809" d="M134.1,128.897c-4.676-0.009-9.332,0.419-13.998,0.621
		c-6.47,0.28-12.941,0.308-19.416,0.296c-14.155-0.027-28.31-0.012-42.465-0.005c-1.567,0.001-3.097-0.27-4.639-0.496
		c-2.915-0.428-4.737-2.104-5.716-4.807c0.573-2.688,1.559-5.163,3.49-7.207c3.889-4.116,8.588-6.817,14.089-8.096
		c6.64-1.542,13.429-1.771,20.196-2.116c4.703-0.24,9.423-0.179,14.1-0.809c11.602-1.564,21.336-6.693,29.138-15.428
		c6.698-7.5,10.166-16.276,10.194-26.355c0.018-6.555-2.329-12.451-5.247-18.165c-0.376-0.736-0.914-1.406-1.704-1.791
		c-1.155-3.38-3.614-5.208-7.059-5.657c-4.758-0.621-9.562-0.548-14.348-0.749c-8.946-0.375-17.898-0.354-26.849-0.289
		c-11.949,0.089-23.864,0.819-35.741,2.147c-1.07,0.12-2.147,0.19-3.22,0.284c0.001-1.24,0.022-2.479-0.003-3.719
		c-0.02-0.95,0.351-1.687,1.045-2.309c9.294-8.331,20.075-13.737,32.239-16.446c0.996-0.222,1.851,0.069,2.781,0.31
		c11.616,3.01,22.668,7.778,34.237,10.941c2.989,0.817,5.88,1.995,8.818,2.999c0.716,0.245,1.431,0.527,2.216,0.384
		c0.427,0.39,1.086,0.231,1.508,0.655c1.059,1.064,2.441,1.466,3.835,1.835c0.416,0.111,0.857,0.288,1.185-0.192
		c0.561,2.711,1.962,4.987,3.911,6.861c5.222,5.019,8.434,11.26,11.118,17.84c3.699,9.065,5.513,18.493,5.028,28.282
		c-0.393,7.936-2.545,15.455-5.9,22.653c-3.049,6.542-7.155,12.343-12.034,17.626C134.618,128.29,134.363,128.596,134.1,128.897z"/>
	<path fill-rule="evenodd" clip-rule="evenodd" fill="#060809" d="M24.767,70.647c-0.27,2.031-0.557,4.06-0.805,6.094
		c-0.689,5.651-0.65,11.299-0.034,16.96c1.029,9.45,4.53,17.98,9.723,25.822c3.375,5.097,7.654,9.409,12.64,12.988
		c1.003,0.72,0.959,1.061-0.167,1.585c-0.786,0.365-1.546,0.216-2.317-0.079c-1.949-0.744-3.527-1.951-4.847-3.573
		c-7.431-9.135-12.469-19.409-14.784-30.974c-0.926-4.626-1.304-9.288-1.278-14.033c0.025-4.662,0.498-9.229,1.366-13.781
		c0.069-0.36,0.19-0.71,0.287-1.065C24.622,70.611,24.694,70.629,24.767,70.647z"/>
	<path fill-rule="evenodd" clip-rule="evenodd" fill="#F8A21E" d="M132.765,34.735c-0.327,0.479-0.769,0.303-1.185,0.192
		c-1.394-0.37-2.776-0.771-3.835-1.835c-0.422-0.424-1.081-0.265-1.508-0.655c-3.923-3.453-7.847-6.907-11.771-10.358
		c-0.419-0.369-0.882-0.704-1.118-1.229c-0.125-0.278-0.334-0.6-0.096-0.898c0.269-0.338,0.601-0.078,0.878,0.018
		c4.501,1.543,8.846,3.434,12.942,5.866c1.27,0.753,2.525,1.53,3.784,2.3c0.868,0.531,1.399,1.266,1.485,2.317
		C132.458,31.882,132.623,33.308,132.765,34.735z"/>
	<path fill-rule="evenodd" clip-rule="evenodd" fill="#060809" d="M57.629,134.881c1.189,0.021,2.242,0.492,3.287,0.991
		c2.764,4.516,5.529,9.032,8.293,13.548c0.33,0.54,0.654,1.084,1.002,1.66c-0.57,0.233-0.985-0.09-1.392-0.239
		c-3.592-1.323-7.068-2.896-10.385-4.821c-0.745-0.433-1.089-0.938-1.058-1.81C57.487,141.101,57.549,137.991,57.629,134.881z"/>
	<path fill-rule="evenodd" clip-rule="evenodd" fill="#F8A21E" d="M159.027,68.12c-0.146-0.225-0.262-0.344-0.308-0.485
		c-2.242-6.981-6.55-12.816-10.393-18.923c-1.685-2.678-4.302-4.231-6.523-6.266c-0.947-0.867-1.843-1.779-2.56-2.843
		c-0.373-0.553-1.08-1.095-0.399-1.887c0.685-0.796,2.011-1.043,2.839-0.526c0.201,0.125,0.388,0.286,0.549,0.459
		c7.898,8.514,13.674,18.234,16.74,29.492C159.045,67.407,159.176,67.663,159.027,68.12z"/>
	<path fill-rule="evenodd" clip-rule="evenodd" fill="#FEFEFE" d="M132.122,44.54c0.79,0.385,1.328,1.055,1.704,1.791
		c2.918,5.714,5.265,11.609,5.247,18.165c-0.028,10.08-3.496,18.856-10.194,26.355c-7.802,8.734-17.536,13.863-29.138,15.428
		c-4.677,0.63-9.397,0.568-14.1,0.809c-6.767,0.346-13.556,0.574-20.196,2.116c-5.501,1.278-10.201,3.979-14.089,8.096
		c-1.931,2.044-2.917,4.52-3.49,7.207c-1.212,0.036-2.039-0.547-2.59-1.593c-3.671-6.97-5.984-14.296-5.383-22.268
		c0.559-7.403,3.335-14.014,7.858-19.864c7.988-10.333,18.46-16.341,31.458-17.953c3.854-0.478,7.718-0.55,11.585-0.727
		c7.249-0.332,14.52-0.54,21.654-2.068c8.18-1.751,14.443-6.154,18.534-13.524C131.35,45.847,131.741,45.196,132.122,44.54z"/>
</g>
</svg>
